PathFileType	4	(X/Y/Z)	\\147.46.242.158\로컬 디스크 (e)\MOCAP Data\Iguana Capture\iguana\Project 2\Capture day 7\Session 2\Take01.trc
DataRate	CameraRate	NumFrames	NumMarkers	Units	OrigDataRate	OrigDataStartFrame	OrigNumFrames
120.0	120.0	8	23	mm	120.0	79	1930
Frame#	Time	ana:head1			ana:head2			ana:bone1			ana:bone2			ana:bone3			ana:tail1			ana:tail2			ana:tail3			ana:tail4			ana:Rforefoot1			ana:Rforefoot2			ana:Rforefoot3			ana:Lforefoot1			ana:Lforefoot2			ana:Lforefoot3			ana:RhindLeg1			ana:RhindLeg2			ana:RhindLeg3			ana:RhindLeg4			ana:LhindLeg1			ana:LhindLeg2			ana:LhindLeg3			ana:LhindLeg4			
		X1	Y1	Z1	X2	Y2	Z2	X3	Y3	Z3	X4	Y4	Z4	X5	Y5	Z5	X6	Y6	Z6	X7	Y7	Z7	X8	Y8	Z8	X9	Y9	Z9	X10	Y10	Z10	X11	Y11	Z11	X12	Y12	Z12	X13	Y13	Z13	X14	Y14	Z14	X15	Y15	Z15	X16	Y16	Z16	X17	Y17	Z17	X18	Y18	Z18	X19	Y19	Z19	X20	Y20	Z20	X21	Y21	Z21	X22	Y22	Z22	X23	Y23	Z23	

978	8.142	-141.48019	-448.81354	51.59710	-131.52751	-450.83356	52.72814	-112.10921	-454.09937	46.69504	-82.15641	-460.01364	43.11387	-47.46119	-461.05994	36.81253	-14.92995	-454.30420	28.82986	20.00275	-456.95688	19.12824	63.65383	-467.33908	9.01148	99.59317	-480.94284	6.43591	-110.56381	-441.00485	32.03081	-93.05999	-438.92206	25.46809	-90.22631	-437.10071	17.88225	-119.24197	-463.34784	26.48748	-119.99589	-474.69223	19.42488	-128.81903	-468.88364	6.29815	-49.57554	-451.10345	30.84930	-60.65940	-435.66785	24.77252	-55.50537	-430.96912	7.90376	-65.15738	-430.19537	6.85309	-43.84946	-469.40802	30.50614	-34.81458	-484.17987	26.01398	-12.15719	-489.53986	19.14517	-14.56089	-495.25815	7.66658	
979	8.150	-143.39236	-448.74939	51.54831	-133.37361	-450.54761	52.65855	-111.89967	-453.93381	44.43825	-83.60886	-458.91339	43.44736	-49.13602	-460.17484	36.80961	-16.63699	-454.15887	29.04563	18.40819	-456.52567	19.14679	61.98809	-466.82550	9.10034	97.88480	-480.63666	6.55559	-111.90140	-440.74268	31.39453	-93.11187	-439.50836	24.45848	-91.65282	-436.46017	17.73893	-120.49718	-463.31104	26.11193	-120.64529	-474.87668	19.70831	-128.83023	-468.87250	6.20876	-50.85906	-450.35651	30.68899	-61.27594	-434.53400	24.06791	-55.77706	-430.90649	8.09931	-65.51398	-429.15286	7.17294	-44.86320	-467.61346	28.93998	-36.71486	-483.47763	26.05777	-14.01541	-489.59052	20.03714	-15.24531	-495.22717	8.54383	
980	8.158	-145.30809	-448.62570	51.18871	-135.26666	-450.35068	52.32111	-113.80763	-453.59036	44.57439	-85.37442	-458.03030	43.55025	-50.75161	-459.65533	36.93801	-18.10012	-454.00430	29.35725	16.80180	-456.31833	19.28806	60.45229	-466.32437	8.94827	96.19309	-480.19330	6.18832	-113.91608	-440.58887	31.45835	-94.95281	-439.74423	24.85639	-93.22227	-435.72623	17.59165	-121.73797	-463.23611	25.82525	-121.09807	-474.85947	19.72074	-128.85446	-468.85492	6.06794	-52.41014	-449.71854	30.87970	-61.88732	-433.64120	23.71431	-55.73249	-430.65222	8.02645	-65.56783	-429.06619	7.10938	-46.99714	-467.63571	30.18377	-38.54017	-482.77933	26.09615	-15.98577	-489.66495	21.05724	-17.05505	-495.63422	9.69186	
981	8.167	-147.07976	-448.40140	51.06073	-137.22212	-450.10870	52.21291	-115.72993	-453.35675	44.85870	-87.08968	-457.44104	43.66669	-52.40237	-459.01938	36.93846	-19.74767	-453.92361	29.54523	15.30574	-455.96640	19.14345	58.86703	-465.79135	8.94158	94.75277	-479.57651	6.58315	-114.81007	-440.61191	30.37605	-96.79034	-439.01080	25.80760	-94.97350	-434.86874	17.47478	-122.96283	-463.36356	26.06054	-121.51989	-474.84573	19.71856	-128.92651	-468.83597	6.05825	-53.87635	-449.04785	30.95786	-62.59364	-432.86987	22.93710	-62.64930	-426.78479	14.69397	-68.42866	-428.69412	9.87646	-48.41657	-466.41730	28.94304	-40.92088	-482.92499	27.02268	-18.30610	-490.05377	22.03169	-17.61140	-495.24753	10.26346	
982	8.175	-148.95789	-448.26910	51.22627	-138.93457	-449.97607	52.29507	-117.32047	-452.98337	44.44899	-88.54060	-456.77533	44.30281	-54.04170	-458.51138	37.00180	-21.36902	-453.79425	29.54005	13.52012	-456.06708	19.47468	57.32066	-465.50632	9.29109	93.31857	-478.82401	6.06248	-115.57610	-440.38989	29.44210	-99.66777	-437.18890	27.50349	-96.94534	-433.85773	17.42271	-124.24646	-463.38980	26.15964	-122.01466	-475.04810	20.17943	-129.02522	-468.82379	6.00380	-54.60954	-448.49573	30.03821	-63.17009	-432.48163	23.23943	-58.50780	-429.86618	12.08659	-68.42767	-428.69440	9.87549	-50.67427	-466.82156	30.66382	-43.06437	-482.76227	27.32699	-20.28063	-490.07764	22.59459	-18.66740	-495.32297	10.25218	
983	8.183	-150.67686	-448.33044	51.51801	-140.54460	-449.93964	52.51326	-119.06962	-452.86157	45.00587	-90.20367	-456.32098	43.83790	-55.66080	-458.14645	37.17271	-23.06176	-454.24442	29.70132	12.00977	-456.16168	19.43338	55.80438	-465.13690	9.17627	91.80856	-478.46310	6.56147	-117.71149	-440.26019	29.72061	-102.33587	-435.60159	28.66245	-99.17666	-432.66306	17.46981	-125.46411	-463.50879	26.34863	-122.30818	-474.98743	20.55923	-129.12029	-468.83240	6.10089	-56.58773	-448.08600	30.85391	-63.58554	-430.97308	21.72544	-62.79517	-426.58316	14.83929	-68.42767	-428.69440	9.87549	-52.87229	-467.08887	31.44164	-45.26448	-482.46143	27.64000	-21.91244	-489.48422	22.19824	-19.72924	-495.08218	10.98370	
984	8.192	-152.38448	-448.38992	51.87311	-142.31288	-450.03256	52.44216	-120.67595	-452.65915	45.03953	-92.04985	-455.69772	43.86446	-56.35739	-456.99048	35.05671	-24.59189	-454.46780	29.75801	10.27497	-456.56693	19.68569	54.18311	-465.06866	9.33082	90.35995	-477.68283	6.30568	-120.38014	-440.14926	30.41310	-105.10992	-433.88110	30.12822	-101.70627	-431.25470	17.65046	-126.53289	-463.42444	26.38084	-122.32457	-474.27811	19.86635	-129.16348	-468.77344	6.04926	-57.63800	-447.78946	30.19839	-63.36565	-430.48404	22.26067	-63.39911	-426.16129	15.25451	-65.14771	-429.88373	7.05259	-54.31390	-466.07788	30.50517	-47.38308	-482.24371	27.84477	-24.37124	-490.08820	23.21320	-20.72498	-494.89484	11.50434	
985	8.200	-154.18623	-448.72095	52.16167	-144.15701	-450.41312	53.33251	-122.60857	-452.75381	45.35382	-93.76332	-455.15561	44.13141	-59.60847	-457.59885	37.82191	-26.27347	-454.79794	29.83505	8.84364	-456.75623	19.57029	52.66558	-464.77756	9.31388	88.96201	-477.38885	6.69955	-122.53555	-440.04825	30.75826	-108.25970	-433.20660	31.67374	-104.57303	-429.60263	17.99903	-127.61678	-463.54260	26.60938	-122.78277	-474.04596	20.20447	-129.34856	-468.71207	5.93863	-59.15998	-447.47284	30.33421	-63.89438	-430.26266	22.27155	-63.73679	-426.01523	15.54703	-65.30597	-429.74579	7.28726	-56.15611	-465.58252	30.68039	-49.24552	-481.93347	27.53498	-25.88541	-489.16562	21.67749	-22.00031	-494.53699	11.21142	
